#!OML:ASF F:\VICON\USERDATA\INSTALL\Justin_Nancy\Justin_Nancy.ASF
:FULLY-SPECIFIED
:DEGREES
318
root -3.9619 17.3172 8.62635 8.0526 41.2954 8.13915
lowerback 6.50645 -2.11281 -6.05514
upperback -0.147634 -3.23394 1.09653
thorax -3.40561 -1.4936 4.83406
lowerneck -16.3196 -3.05141 -9.38789
upperneck 23.9816 -2.67169 4.17315
head 10.5986 -1.54189 2.7115
rclavicle -1.58034e-014 -1.35174e-014
rhumerus -37.7208 -17.2435 -75.881
rradius 31.2267
rwrist 6.19261
rhand -14.3726 14.341
rfingers 7.12502
rthumb 11.7698 -15.3083
lclavicle -1.58034e-014 -1.35174e-014
lhumerus -26.5594 4.90735 83.0441
lradius 37.6614
lwrist -4.63279
lhand -16.7178 24.2721
lfingers 7.12502
lthumb 9.50762 54.0376
rfemur -29.0461 -0.759229 13.6922
rtibia 13.7803
rfoot -7.36276 -8.27601
rtoes -5.23865
lfemur 3.5361 0.672957 -31.8965
ltibia 18.7302
lfoot -16.0822 -5.39612
ltoes 7.84756
319
root -3.89127 17.316 8.74533 8.0855 41.4323 8.02573
lowerback 6.49899 -2.14582 -5.9499
upperback -0.202289 -3.27096 1.10283
thorax -3.45907 -1.51062 4.78576
lowerneck -16.5134 -2.9999 -9.34063
upperneck 24.1555 -2.58411 4.13848
head 10.6919 -1.50252 2.70539
rclavicle -7.62339e-014 1.59028e-015
rhumerus -37.817 -17.5605 -75.8069
rradius 31.0865
rwrist 6.60662
rhand -14.4444 14.5424
rfingers 7.12502
rthumb 11.7006 -15.1109
lclavicle -7.62339e-014 1.59028e-015
lhumerus -26.382 5.02143 82.9421
lradius 37.478
lwrist -4.81454
lhand -16.8069 24.6436
lfingers 7.12502
lthumb 9.42168 54.413
rfemur -29.0676 -0.556493 13.9069
rtibia 13.7718
rfoot -6.96591 -8.42894
rtoes -5.54967
lfemur 3.81606 0.528937 -31.6065
ltibia 18.9043
lfoot -15.9459 -5.69129
ltoes 6.24412
320
root -3.82018 17.3101 8.86591 8.04724 41.5133 8.08864
lowerback 6.52046 -2.12315 -6.09851
upperback -0.083509 -3.2479 1.1492
thorax -3.3394 -1.5034 4.91326
lowerneck -16.7819 -2.9649 -9.24574
upperneck 24.2257 -2.46736 3.88827
head 10.7572 -1.46968 2.61488
rclavicle 4.13472e-014 -1.98785e-014
rhumerus -37.6611 -17.6505 -75.7409
rradius 31.0528
rwrist 6.55216
rhand -14.491 14.8124
rfingers 7.12502
rthumb 11.6557 -14.8434
lclavicle 4.13472e-014 -1.98785e-014
lhumerus -26.0954 5.03629 83.0001
lradius 37.332
lwrist -4.77145
lhand -16.8718 24.9565
lfingers 7.12502
lthumb 9.35907 54.7287
rfemur -28.7792 -0.829041 14.209
rtibia 13.7447
rfoot -6.2849 -7.77498
rtoes -5.08942
lfemur 4.17011 0.25571 -31.5049
ltibia 19.4046
lfoot -15.9218 -5.76025
ltoes 5.12912
321
root -3.75303 17.3073 9.00582 7.99788 41.453 8.00499
lowerback 6.2819 -2.03731 -6.44578
upperback 0.00189055 -3.13566 1.31616
thorax -3.10333 -1.45238 5.26014
lowerneck -16.7367 -3.00778 -9.28032
upperneck 24.1618 -2.49706 3.79699
head 10.7274 -1.49661 2.5823
rclavicle -8.74653e-015 1.35174e-014
rhumerus -37.4614 -17.5667 -75.6243
rradius 30.8761
rwrist 6.3019
rhand -14.4059 14.6828
rfingers 7.12502
rthumb 11.7377 -14.9683
lclavicle -8.74653e-015 1.35174e-014
lhumerus -25.9264 5.0323 83.1891
lradius 37.2035
lwrist -4.86452
lhand -16.9581 25.288
lfingers 7.12502
lthumb 9.27577 55.064
rfemur -28.6756 -0.38818 14.4429
rtibia 14.1941
rfoot -6.02008 -7.57809
rtoes -3.52835
lfemur 4.44371 -0.0393027 -31.269
ltibia 19.9125
lfoot -15.8729 -5.88414
ltoes 5.49312
322
root -3.69904 17.303 9.17314 7.46223 41.086 7.15574
lowerback 5.95728 -1.84097 -6.51105
upperback 0.0237132 -2.84782 1.59662
thorax -2.92024 -1.31463 5.55417
lowerneck -16.5329 -3.10327 -9.31214
upperneck 24.1384 -2.65176 3.83123
head 10.6922 -1.56681 2.5786
rclavicle -8.94531e-016 1.03368e-014
rhumerus -37.5129 -17.4167 -75.6327
rradius 30.7022
rwrist 6.03321
rhand -14.3767 14.3152
rfingers 7.12502
rthumb 11.7659 -15.3343
lclavicle -8.94531e-016 1.03368e-014
lhumerus -26.0181 4.9136 83.2426
lradius 37.2146
lwrist -4.90987
lhand -16.8466 25.6308
lfingers 7.12502
lthumb 9.38337 55.402
rfemur -28.6541 1.56711 14.9548
rtibia 14.7953
rfoot -5.88946 -9.35985
rtoes 15.4213
lfemur 4.52919 0.0251256 -30.3655
ltibia 20.5717
lfoot -15.9091 -5.9566
ltoes 4.99046
323
root -3.59951 17.2819 9.27066 7.85847 41.4174 7.87596
lowerback 6.19938 -1.97861 -6.44342
upperback -0.0710995 -3.05443 1.31295
thorax -3.14458 -1.40864 5.24767
lowerneck -16.5191 -3.1289 -9.44785
upperneck 24.3091 -2.70129 4.01865
head 10.7609 -1.58179 2.66527
rclavicle 8.44835e-015 -7.95139e-016
rhumerus -37.6861 -17.693 -75.5235
rradius 30.5348
rwrist 6.37061
rhand -14.4636 14.626
rfingers 7.12502
rthumb 11.6821 -15.0283
lclavicle 8.44835e-015 -7.95139e-016
lhumerus -26.1411 5.09956 83.1068
lradius 37.1326
lwrist -5.22558
lhand -16.4896 25.4207
lfingers 7.12502
lthumb 9.72779 55.1761
rfemur -28.7234 0.436883 14.725
rtibia 16.0072
rfoot -4.96961 -6.90256
rtoes -4.86857
lfemur 4.91777 -0.466532 -30.939
ltibia 21.0616
lfoot -15.6823 -6.20029
ltoes 4.00603
